<svg xmlns="http://www.w3.org/2000/svg" width="103.414" height="107.613" viewBox="0 0 103.414 107.613">
  <g id="Rubber_Duck" transform="translate(0 10.607)">
    <path id="path3061" d="M112.232,25.248a22.561,22.561,0,0,0-19.855,11.9c-5.034,9.727-1.839,21.671,7.006,28.732,1.348,1.43,1.908,3.169,1.289,4.61-.627,1.461-2.3,2.262-4.436,2.12S87.259,70.654,83.911,70.1c-3.608-.592-4.954-1.349-10.338-3.88-4.289-2.016-5.441-6.847-7.118-8.752a4.939,4.939,0,0,0-4.975-2.5,3.994,3.994,0,0,0-3.13,2.065s-4.018,7.759-4.663,9.243S49.777,73.639,49.1,79.506c-4.853,41.984,53.68,46.41,83.092,40.1,11.247-2.413,19.946-11.871,19.946-23.769A24.089,24.089,0,0,0,140.1,74.964a20.093,20.093,0,0,1-7.725-10.087,21.225,21.225,0,0,0,3.708-5.112c5.791-11.191.7-25.328-11.365-31.574a26.037,26.037,0,0,0-11.685-2.944c-.268,0-.531-.006-.8,0Z" transform="translate(-48.815 -24.924)" fill="#f6fc6a" fill-rule="evenodd"/>
    <path id="path4022" d="M141.489,174.51a24,24,0,0,1,3.206,12.015c0,11.9-8.7,21.355-19.946,23.769-22.241,4.772-59.708,3.4-76.187-15.7,13.9,22.974,55.414,24.867,79.145,19.775,11.247-2.413,19.946-11.871,19.946-23.769a23.994,23.994,0,0,0-6.162-16.089Z" transform="translate(-44.239 -119.687)" fill="#ffe566" fill-rule="evenodd"/>
    <path id="path4046" d="M114.48,66.567a7.171,7.171,0,1,1-5.739,2.909,5.954,5.954,0,1,0,2.18-1.963,7.12,7.12,0,0,1,3.56-.947Z" transform="translate(-39.67 -51.158)" fill="#ffe566" fill-rule="evenodd"/>
    <path id="path3945" d="M11.929,5.964A5.964,5.964,0,1,1,5.964,0,5.964,5.964,0,0,1,11.929,5.964Z" transform="translate(68.058 15.67)" fill="#393228" fill-rule="evenodd"/>
    <path id="path4013" d="M56.794,97.634a4.541,4.541,0,0,1,4.653-2.168c.458.117,1.754-2.293,2.2-2.24,1.181.141,2.014,1.26,2.525,1.76,1.423,1.39,6.613.8,7.941,1.117,1.92,2.7-4.475,7.381-7.667,5.4-1.694-.543-.626.282-.278.653,2.138,2.277,4.374,3.73,3.405,4.7-1.956,1.956-7.986.432-10.258-1.839-3.568-3.568-3-6.134-2.518-7.381Z" transform="translate(26.079 -68.082)" fill="#fe8f39" fill-rule="evenodd"/>
    <path id="path4020" d="M123.543,27.463c3.711,0,7.47-.265,10.3-3.095" transform="translate(-57.807 -24.368)" fill="none" stroke="#faff74" stroke-linecap="round" stroke-linejoin="round" stroke-width="15"/>
    <path id="path4032" d="M233.908,148.145s-4.649-.621-10.333-1.885q-.742-.165-1.5-.345c-1.483-.35-3.013-.741-4.53-1.175a15.943,15.943,0,0,1-2.272-.722m-3.6-1.451c-3.924-1.619-6.187-3.057-6.566-3.719" transform="translate(-187.653 -97.047)" fill="none" stroke="#fff" stroke-linecap="round" stroke-linejoin="round" stroke-width="3"/>
    <path id="path4049" d="M4657.846,157.324a2.881,2.881,0,1,0,2.88-2.881A2.881,2.881,0,0,0,4657.846,157.324Z" transform="translate(-4587.244 -137.26)" fill="#fff" fill-rule="evenodd"/>
    <path id="path4051" d="M187.678,36.725a12.122,12.122,0,0,0-4.436,2.5m-1.8,1.6q-.429.423-.871.916c-3.148,3.519-4.923,7.342-4.923,9.564" transform="translate(-130.669 -32.213)" fill="none" stroke="#fff" stroke-linecap="round" stroke-linejoin="round" stroke-width="3"/>
  </g>
</svg>
